HIERARCHY
ROOT Hips
{
	OFFSET 0.000000 0.000000 0.000000
	CHANNELS 6 Xposition Yposition Zposition Xrotation Yrotation Zrotation
	JOINT LeftUpLeg_virtual
	{
		OFFSET 0.000000 0.000000 0.000000
		CHANNELS 3 Xrotation Yrotation Zrotation
		JOINT LeftUpLeg
		{
			OFFSET 10.205400 -3.823500 0.155100
			CHANNELS 3 Xrotation Yrotation Zrotation
			JOINT LeftLeg
			{
				OFFSET 0.708757 -12.982077 0.567790
				CHANNELS 3 Xrotation Yrotation Zrotation
				JOINT LeftFoot
				{
					OFFSET -0.708756 -10.717838 -2.184338
					CHANNELS 3 Xrotation Yrotation Zrotation
					JOINT LeftToeBase
					{
						OFFSET 0.108149 -7.191104 7.560241
						CHANNELS 3 Xrotation Yrotation Zrotation
						JOINT LeftToe_End
						{
							OFFSET 0.070230 0.081724 4.490308
							CHANNELS 3 Xrotation Yrotation Zrotation
							End Site
							{
								OFFSET 0 0 0
							}
						}
					}
				}
			}
		}
	}
	JOINT RightUpLeg_virtual
	{
		OFFSET 0.000000 0.000000 0.000000
		CHANNELS 3 Xrotation Yrotation Zrotation
		JOINT RightUpLeg
		{
			OFFSET -10.205400 -3.823500 0.005500
			CHANNELS 3 Xrotation Yrotation Zrotation
			JOINT RightLeg
			{
				OFFSET -0.708756 -12.982134 0.610632
				CHANNELS 3 Xrotation Yrotation Zrotation
				JOINT RightFoot
				{
					OFFSET 0.708754 -10.717769 -1.945823
					CHANNELS 3 Xrotation Yrotation Zrotation
					JOINT RightToeBase
					{
						OFFSET -0.108140 -7.191069 7.372968
						CHANNELS 3 Xrotation Yrotation Zrotation
						JOINT RightToe_End
						{
							OFFSET -0.070227 0.081735 4.479403
							CHANNELS 3 Xrotation Yrotation Zrotation
							End Site
							{
								OFFSET 0 0 0
							}
						}
					}
				}
			}
		}
	}
	JOINT Spine_virtual
	{
		OFFSET 0.000000 0.000000 0.000000
		CHANNELS 3 Xrotation Yrotation Zrotation
		JOINT Spine
		{
			OFFSET 0.000000 6.876099 0.125700
			CHANNELS 3 Xrotation Yrotation Zrotation
			JOINT Spine1
			{
				OFFSET 0.000000 5.730043 0.104720
				CHANNELS 3 Xrotation Yrotation Zrotation
				JOINT Spine1_split
				{
					OFFSET 0.000000 5.730043 0.104720
					CHANNELS 3 Xrotation Yrotation Zrotation
					JOINT Spine2
					{
						OFFSET 0.000000 5.730043 0.104720
						CHANNELS 3 Xrotation Yrotation Zrotation
						JOINT Neck_virtual
						{
							OFFSET 0.000000 0.000000 0.000000
							CHANNELS 3 Xrotation Yrotation Zrotation
							JOINT Neck
							{
								OFFSET 0.000000 10.314075 0.188496
								CHANNELS 3 Xrotation Yrotation Zrotation
								JOINT Head
								{
									OFFSET 0.000000 7.643700 -2.377400
									CHANNELS 3 Xrotation Yrotation Zrotation
									JOINT HeadTop_End
									{
										OFFSET 0.000000 43.788605 -13.619600
										CHANNELS 3 Xrotation Yrotation Zrotation
										End Site
										{
											OFFSET 0 0 0
										}
									}
								}
							}
						}
						JOINT LeftShoulder_virtual
						{
							OFFSET 0.000000 0.000000 0.000000
							CHANNELS 3 Xrotation Yrotation Zrotation
							JOINT LeftShoulder
							{
								OFFSET 2.196100 4.412489 0.087492
								CHANNELS 3 Xrotation Yrotation Zrotation
								JOINT LeftShoulder_split
								{
									OFFSET 2.196100 4.412489 0.087492
									CHANNELS 3 Xrotation Yrotation Zrotation
									JOINT LeftArm
									{
										OFFSET 8.771219 -2.981674 -0.026999
										CHANNELS 3 Xrotation Yrotation Zrotation
										JOINT LeftForeArm
										{
											OFFSET 8.512804 0.000000 -0.000000
											CHANNELS 3 Xrotation Yrotation Zrotation
											JOINT LeftHand
											{
												OFFSET 18.484802 0.000000 -0.000000
												CHANNELS 3 Xrotation Yrotation Zrotation
												End Site
												{
													OFFSET 0 0 0
												}
											}
										}
									}
								}
							}
						}
						JOINT RightShoulder_virtual
						{
							OFFSET 0.000000 0.000000 0.000000
							CHANNELS 3 Xrotation Yrotation Zrotation
							JOINT RightShoulder
							{
								OFFSET -2.196100 4.412496 0.070690
								CHANNELS 3 Xrotation Yrotation Zrotation
								JOINT RightShoulder_split
								{
									OFFSET -2.196100 4.412496 0.070690
									CHANNELS 3 Xrotation Yrotation Zrotation
									JOINT RightArm
									{
										OFFSET -8.771282 -2.981682 -0.094208
										CHANNELS 3 Xrotation Yrotation Zrotation
										JOINT RightForeArm
										{
											OFFSET -8.494598 0.000000 0.000000
											CHANNELS 3 Xrotation Yrotation Zrotation
											JOINT RightHand
											{
												OFFSET -18.483803 0.000000 0.000001
												CHANNELS 3 Xrotation Yrotation Zrotation
												End Site
												{
													OFFSET 0 0 0
												}
											}
										}
									}
								}
							}
						}
					}
				}
			}
		}
	}
}
MOTION
Frames: 9
Frame Time: 0.03333333
1.876953 5.397301 1.582621 0.000000 0.000000 0.000000 81.588864 3.047482 -1.732968 9.860969 11.967431 19.008550 24.193266 18.036522 5.381578 33.630987 30.498045 -21.298222 0.048598 1.369860 9.425764 0.000000 0.000000 0.000000 83.775740 -1.355750 -0.562921 4.597382 -8.463298 -21.358893 3.705766 -1.928441 4.545381 47.513849 -21.624502 30.916916 18.064732 -4.436344 -18.327160 0.000000 0.000000 0.000000 86.946409 -1.027462 1.036436 2.736225 0.360024 -1.449432 0.676709 0.507259 0.048626 0.367610 -0.807182 0.557049 0.000000 0.000000 0.000000 -0.877969 0.331202 -0.246075 -4.617655 -12.317913 5.406083 -19.055768 -55.719952 -20.039225 0.000000 0.000000 0.000000 0.263610 0.267594 -0.361388 3.273948 -17.256031 -2.940949 -1.172377 -0.572247 -1.436301 22.725769 -20.111772 -56.623245 0.156300 -24.773707 -0.937813 0.000000 0.000000 0.000000 0.021957 0.760199 0.290172 -0.305927 11.969311 11.279714 7.858715 6.656828 -2.762227 7.026629 -10.030909 55.492360 0.508019 28.060987 1.057700 0.000000 0.000000 0.000000 
1.877594 5.395605 1.574739 0.000000 0.000000 0.000000 81.591944 3.045107 -1.735335 9.865550 11.965061 19.004411 24.221420 18.035599 5.378718 33.616159 30.508522 -21.294944 0.040919 1.371059 9.420392 0.000000 0.000000 0.000000 83.774729 -1.352304 -0.567983 4.595678 -8.456426 -21.345723 3.728488 -1.926407 4.539774 47.490428 -21.629628 30.916476 18.095814 -4.437681 -18.326680 0.000000 0.000000 0.000000 86.943097 -1.029714 1.043166 2.734224 0.356251 -1.448207 0.679031 0.505827 0.050626 0.355376 -0.804987 0.552163 0.000000 0.000000 0.000000 -0.872802 0.332306 -0.246336 -4.617633 -12.306702 5.399961 -19.053045 -55.706593 -20.041148 0.000000 0.000000 0.000000 0.272432 0.266130 -0.360201 3.278365 -17.273842 -2.926334 -1.175996 -0.547367 -1.440397 22.732026 -20.111552 -56.621763 0.159191 -24.742929 -0.931004 0.000000 0.000000 0.000000 0.023385 0.759346 0.292585 -0.308258 11.966629 11.271932 7.865216 6.680538 -2.767531 7.007246 -10.008497 55.479472 0.523193 28.091115 1.048322 0.000000 0.000000 0.000000 
1.877870 5.393913 1.568020 0.000000 0.000000 0.000000 81.591295 3.040228 -1.741002 9.861607 11.975234 19.015674 24.266921 18.028291 5.369567 33.606112 30.506572 -21.303210 0.029011 1.372214 9.422611 0.000000 0.000000 0.000000 83.773097 -1.355534 -0.574201 4.594631 -8.435642 -21.315065 3.766987 -1.916033 4.531582 47.461410 -21.625405 30.931147 18.137564 -4.447236 -18.348046 0.000000 0.000000 0.000000 86.938903 -1.033894 1.051238 2.732809 0.355474 -1.441867 0.684103 0.504384 0.052525 0.347015 -0.804659 0.548217 0.000000 0.000000 0.000000 -0.868146 0.332080 -0.245071 -4.616592 -12.289052 5.388371 -19.027461 -55.700736 -20.038706 0.000000 0.000000 0.000000 0.281998 0.264535 -0.361494 3.282383 -17.313652 -2.919004 -1.183644 -0.535434 -1.446954 22.753556 -20.114723 -56.604414 0.143550 -24.692331 -0.937786 0.000000 0.000000 0.000000 0.028878 0.758596 0.293686 -0.309569 11.967728 11.264960 7.880582 6.703548 -2.778375 6.976968 -10.014887 55.478662 0.549247 28.103257 1.035992 0.000000 0.000000 0.000000 
1.877442 5.393120 1.564310 0.000000 0.000000 0.000000 81.590038 3.036077 -1.752271 9.845686 11.997658 19.041618 24.312608 18.019062 5.357132 33.607352 30.493427 -21.322158 0.016480 1.373055 9.432156 0.000000 0.000000 0.000000 83.773220 -1.361385 -0.583623 4.595584 -8.405540 -21.272506 3.811650 -1.902537 4.520636 47.428871 -21.614139 30.954311 18.184556 -4.463172 -18.386249 0.000000 0.000000 0.000000 86.936806 -1.040555 1.057191 2.733681 0.357293 -1.431362 0.691323 0.503491 0.054276 0.350155 -0.813891 0.552726 0.000000 0.000000 0.000000 -0.864955 0.330672 -0.242701 -4.613603 -12.268967 5.376423 -18.984975 -55.702792 -20.032738 0.000000 0.000000 0.000000 0.290620 0.262919 -0.364947 3.286544 -17.374330 -2.916072 -1.188477 -0.531145 -1.461289 22.788726 -20.109277 -56.569765 0.116021 -24.654232 -0.955528 0.000000 0.000000 0.000000 0.036805 0.758406 0.293494 -0.310916 11.969883 11.261899 7.903760 6.725738 -2.789162 6.937389 -10.060910 55.484874 0.580334 28.085357 1.021899 0.000000 0.000000 0.000000 
1.876907 5.393608 1.563009 0.000000 0.000000 0.000000 81.589786 3.035923 -1.767195 9.819262 12.026190 19.076660 24.347116 18.013521 5.346251 33.616193 30.475324 -21.346570 0.007461 1.373013 9.448820 0.000000 0.000000 0.000000 83.776047 -1.362481 -0.597976 4.593963 -8.375482 -21.231112 3.854210 -1.889416 4.508322 47.403596 -21.594094 30.983688 18.236439 -4.483757 -18.433914 0.000000 0.000000 0.000000 86.939921 -1.048317 1.059549 2.738251 0.360531 -1.418359 0.700406 0.503232 0.055056 0.356739 -0.829290 0.558332 0.000000 0.000000 0.000000 -0.863434 0.328354 -0.239954 -4.610547 -12.249638 5.367992 -18.940045 -55.710216 -20.028456 0.000000 0.000000 0.000000 0.297085 0.261236 -0.369120 3.291958 -17.453104 -2.911407 -1.180220 -0.520476 -1.475067 22.828336 -20.095820 -56.521410 0.087975 -24.639778 -0.977045 0.000000 0.000000 0.000000 0.045982 0.758089 0.291095 -0.311306 11.968067 11.262211 7.921576 6.736702 -2.805942 6.894044 -10.139049 55.487654 0.611107 28.049377 1.008179 0.000000 0.000000 0.000000 
1.875270 5.394682 1.561893 0.000000 0.000000 0.000000 81.593679 3.044681 -1.784390 9.790111 12.050411 19.112051 24.362551 18.016359 5.343210 33.614189 30.463217 -21.365327 0.004636 1.372220 9.472806 0.000000 0.000000 0.000000 83.782119 -1.355669 -0.613895 4.579362 -8.350732 -21.204490 3.892740 -1.876389 4.495550 47.391015 -21.562822 31.019325 18.291936 -4.507282 -18.485842 0.000000 0.000000 0.000000 86.948602 -1.050752 1.054513 2.746938 0.363051 -1.405102 0.709504 0.502746 0.054069 0.364007 -0.848234 0.561588 0.000000 0.000000 0.000000 -0.862644 0.325126 -0.237807 -4.610492 -12.234797 5.364569 -18.900815 -55.722838 -20.027952 0.000000 0.000000 0.000000 0.301149 0.260082 -0.372862 3.299685 -17.547108 -2.902587 -1.155324 -0.499936 -1.485491 22.868554 -20.085078 -56.460102 0.070065 -24.650658 -0.993481 0.000000 0.000000 0.000000 0.055743 0.757074 0.286438 -0.309583 11.960258 11.267294 7.942409 6.734627 -2.828535 6.848030 -10.236709 55.478782 0.637167 28.008173 0.996412 0.000000 0.000000 0.000000 
1.872343 5.396006 1.559538 0.000000 0.000000 0.000000 81.603057 3.066849 -1.803891 9.765450 12.063643 19.136553 24.360889 18.022960 5.348188 33.592230 30.459328 -21.378784 -0.001274 1.370388 9.503692 0.000000 0.000000 0.000000 83.788676 -1.340015 -0.627490 4.545848 -8.334133 -21.200561 3.930701 -1.861005 4.483226 47.389174 -21.521725 31.059879 18.342821 -4.530966 -18.542137 0.000000 0.000000 0.000000 86.961402 -1.042050 1.041056 2.760401 0.363538 -1.393560 0.716751 0.502472 0.051541 0.368379 -0.859352 0.563525 0.000000 0.000000 0.000000 -0.862242 0.322006 -0.237400 -4.616126 -12.225140 5.365970 -18.868524 -55.734863 -20.031041 0.000000 0.000000 0.000000 0.305362 0.259593 -0.375601 3.309713 -17.647196 -2.887517 -1.128574 -0.472740 -1.493677 22.905183 -20.090038 -56.392156 0.069861 -24.677489 -0.996501 0.000000 0.000000 0.000000 0.065473 0.756274 0.279667 -0.306702 11.951502 11.271602 7.975027 6.720877 -2.850649 6.799242 -10.335579 55.461351 0.657059 27.974756 0.986819 0.000000 0.000000 0.000000 
1.868930 5.395956 1.557043 0.000000 0.000000 0.000000 81.618548 3.101487 -1.822417 9.744968 12.062117 19.145497 24.351564 18.031481 5.357936 33.556825 30.465246 -21.393057 -0.013816 1.367469 9.535590 0.000000 0.000000 0.000000 83.795623 -1.313749 -0.638729 4.493429 -8.327150 -21.221176 3.976318 -1.842303 4.473984 47.390783 -21.478740 31.102192 18.386926 -4.553417 -18.602123 0.000000 0.000000 0.000000 86.976831 -1.017277 1.019807 2.777947 0.361372 -1.384193 0.722719 0.503489 0.047724 0.363630 -0.860821 0.557608 0.000000 0.000000 0.000000 -0.863079 0.320050 -0.239542 -4.629730 -12.221228 5.368229 -18.842742 -55.744083 -20.035586 0.000000 0.000000 0.000000 0.312034 0.259850 -0.377663 3.321193 -17.749838 -2.869339 -1.099765 -0.448558 -1.496527 22.929266 -20.120964 -56.331801 0.086402 -24.696624 -0.982460 0.000000 0.000000 0.000000 0.076029 0.756889 0.271559 -0.302448 11.952092 11.274608 8.015388 6.695784 -2.875654 6.752114 -10.418064 55.445471 0.671267 27.945000 0.980629 0.000000 0.000000 0.000000 
1.866559 5.394062 1.554630 0.000000 0.000000 0.000000 81.638219 3.146506 -1.841828 9.724120 12.049839 19.141352 24.346648 18.045700 5.366106 33.518532 30.484733 -21.406810 -0.028235 1.365455 9.557651 0.000000 0.000000 0.000000 83.800554 -1.278204 -0.650859 4.430904 -8.325986 -21.260849 4.037841 -1.825122 4.469127 47.381080 -21.450419 31.136438 18.437870 -4.575956 -18.662208 0.000000 0.000000 0.000000 86.991571 -0.981573 0.996080 2.798373 0.356138 -1.377976 0.725798 0.505863 0.043008 0.353409 -0.849668 0.556731 0.000000 0.000000 0.000000 -0.862928 0.320163 -0.244445 -4.646440 -12.224050 5.367785 -18.818035 -55.751846 -20.040837 0.000000 0.000000 0.000000 0.324600 0.260268 -0.380027 3.332851 -17.851610 -2.856750 -1.072473 -0.437849 -1.491599 22.929307 -20.157374 -56.298487 0.111304 -24.694602 -0.954716 0.000000 0.000000 0.000000 0.085953 0.760490 0.264590 -0.299098 11.967658 11.274892 8.077724 6.689527 -2.888857 6.699552 -10.485246 55.433084 0.672141 27.897945 0.979497 0.000000 0.000000 0.000000 
